<?xml version="1.0" encoding="UTF-8" standalone="no"?>
<!DOCTYPE svg PUBLIC "-//W3C//DTD SVG 1.1//EN"
 "http://www.w3.org/Graphics/SVG/1.1/DTD/svg11.dtd">
<!-- Generated by graphviz version 9.0.0 (0)
 -->
<!-- Title: snakemake_dag Pages: 1 -->
<svg width="306pt" height="188pt"
 viewBox="0.00 0.00 305.75 188.00" xmlns="http://www.w3.org/2000/svg" xmlns:xlink="http://www.w3.org/1999/xlink">
<g id="graph0" class="graph" transform="scale(1 1) rotate(0) translate(4 184)">
<title>snakemake_dag</title>
<polygon fill="white" stroke="none" points="-4,4 -4,-184 301.75,-184 301.75,4 -4,4"/>
<!-- 0 -->
<g id="node1" class="node">
<title>0</title>
<path fill="none" stroke="#d85656" stroke-width="2" d="M166.25,-36C166.25,-36 100.75,-36 100.75,-36 94.75,-36 88.75,-30 88.75,-24 88.75,-24 88.75,-12 88.75,-12 88.75,-6 94.75,0 100.75,0 100.75,0 166.25,0 166.25,0 172.25,0 178.25,-6 178.25,-12 178.25,-12 178.25,-24 178.25,-24 178.25,-30 172.25,-36 166.25,-36"/>
<text text-anchor="middle" x="133.5" y="-14.12" font-family="sans" font-size="10.00">FINAL_TARGET</text>
</g>
<!-- 1 -->
<g id="node2" class="node">
<title>1</title>
<path fill="none" stroke="#56c1d8" stroke-width="2" d="M166.62,-108C166.62,-108 100.38,-108 100.38,-108 94.38,-108 88.38,-102 88.38,-96 88.38,-96 88.38,-84 88.38,-84 88.38,-78 94.38,-72 100.38,-72 100.38,-72 166.62,-72 166.62,-72 172.62,-72 178.62,-78 178.62,-84 178.62,-84 178.62,-96 178.62,-96 178.62,-102 172.62,-108 166.62,-108"/>
<text text-anchor="middle" x="133.5" y="-86.12" font-family="sans" font-size="10.00">render_bs4_book</text>
</g>
<!-- 1&#45;&gt;0 -->
<g id="edge1" class="edge">
<title>1&#45;&gt;0</title>
<path fill="none" stroke="grey" stroke-width="2" d="M133.5,-71.34C133.5,-64.75 133.5,-57.08 133.5,-49.67"/>
<polygon fill="grey" stroke="grey" stroke-width="2" points="137,-49.93 133.5,-39.93 130,-49.93 137,-49.93"/>
</g>
<!-- 2 -->
<g id="node3" class="node">
<title>2</title>
<path fill="none" stroke="#d8bc56" stroke-width="2" d="M55,-180C55,-180 12,-180 12,-180 6,-180 0,-174 0,-168 0,-168 0,-156 0,-156 0,-150 6,-144 12,-144 12,-144 55,-144 55,-144 61,-144 67,-150 67,-156 67,-156 67,-168 67,-168 67,-174 61,-180 55,-180"/>
<text text-anchor="middle" x="33.5" y="-158.12" font-family="sans" font-size="10.00">project_tree</text>
</g>
<!-- 2&#45;&gt;1 -->
<g id="edge2" class="edge">
<title>2&#45;&gt;1</title>
<path fill="none" stroke="grey" stroke-width="2" d="M58.99,-143.15C70.75,-134.93 84.9,-125.02 97.7,-116.06"/>
<polygon fill="grey" stroke="grey" stroke-width="2" points="99.39,-119.15 105.57,-110.55 95.37,-113.42 99.39,-119.15"/>
</g>
<!-- 3 -->
<g id="node4" class="node">
<title>3</title>
<path fill="none" stroke="#56d88a" stroke-width="2" d="M169.62,-180C169.62,-180 97.38,-180 97.38,-180 91.38,-180 85.38,-174 85.38,-168 85.38,-168 85.38,-156 85.38,-156 85.38,-150 91.38,-144 97.38,-144 97.38,-144 169.62,-144 169.62,-144 175.62,-144 181.62,-150 181.62,-156 181.62,-156 181.62,-168 181.62,-168 181.62,-174 175.62,-180 169.62,-180"/>
<text text-anchor="middle" x="133.5" y="-158.12" font-family="sans" font-size="10.00">snakemake_report</text>
</g>
<!-- 3&#45;&gt;1 -->
<g id="edge3" class="edge">
<title>3&#45;&gt;1</title>
<path fill="none" stroke="grey" stroke-width="2" d="M133.5,-143.34C133.5,-136.75 133.5,-129.08 133.5,-121.67"/>
<polygon fill="grey" stroke="grey" stroke-width="2" points="137,-121.93 133.5,-111.93 130,-121.93 137,-121.93"/>
</g>
<!-- 4 -->
<g id="node5" class="node">
<title>4</title>
<path fill="none" stroke="#88d856" stroke-width="2" d="M285.75,-180C285.75,-180 211.25,-180 211.25,-180 205.25,-180 199.25,-174 199.25,-168 199.25,-168 199.25,-156 199.25,-156 199.25,-150 205.25,-144 211.25,-144 211.25,-144 285.75,-144 285.75,-144 291.75,-144 297.75,-150 297.75,-156 297.75,-156 297.75,-168 297.75,-168 297.75,-174 291.75,-180 285.75,-180"/>
<text text-anchor="middle" x="248.5" y="-158.12" font-family="sans" font-size="10.00">generate_rulegraph</text>
</g>
<!-- 4&#45;&gt;1 -->
<g id="edge4" class="edge">
<title>4&#45;&gt;1</title>
<path fill="none" stroke="grey" stroke-width="2" d="M219.18,-143.15C205.4,-134.76 188.74,-124.62 173.79,-115.52"/>
<polygon fill="grey" stroke="grey" stroke-width="2" points="175.71,-112.6 165.35,-110.39 172.07,-118.58 175.71,-112.6"/>
</g>
</g>
</svg>
